<svg width="112" height="112" viewBox="0 0 112 112" fill="none" xmlns="http://www.w3.org/2000/svg">
<rect width="112" height="112" rx="2" fill="#F1F3F5"/>
<path fill-rule="evenodd" clip-rule="evenodd" d="M30.8492 52.9704V55.3492L36.5468 55.3467C36.372 56.6586 35.9286 57.6192 35.2547 58.2917C34.4238 59.1208 33.1267 60.0334 30.8492 60.0334C27.3379 60.0334 24.5917 57.2097 24.5917 53.7061C24.5917 50.2024 27.3379 47.3787 30.8492 47.3787C32.7441 47.3787 34.1274 48.1219 35.1483 49.0775L36.8305 47.399C35.4067 46.0415 33.5118 45 30.8517 45C26.0433 45 22 48.9081 22 53.7061C22 58.504 26.0433 62.4121 30.8517 62.4121C33.4459 62.4121 35.4042 61.5627 36.9369 59.9702C38.5127 58.3978 39.0016 56.191 39.0016 54.4063C39.0016 53.8754 38.9611 53.385 38.8826 52.9704H30.8492ZM78.9101 62.0708V45.6395H76.5034V62.0708H78.9101ZM45.5956 62.4147C48.7015 62.4147 51.2324 60.0359 51.2324 56.8078C51.2324 53.5569 48.7015 51.2009 45.5956 51.2009C42.4896 51.2009 39.9588 53.5569 39.9588 56.8078C39.9588 60.0359 42.4896 62.4147 45.5956 62.4147ZM45.5956 53.4103C47.298 53.4103 48.7649 54.7905 48.7649 56.8078C48.7649 58.8023 47.298 60.2053 45.5956 60.2053C43.8931 60.2053 42.4263 58.8048 42.4263 56.8078C42.4263 54.7905 43.8931 53.4103 45.5956 53.4103ZM57.7562 62.4147C60.8621 62.4147 63.393 60.0359 63.393 56.8078C63.393 53.5569 60.8621 51.2009 57.7562 51.2009C54.6502 51.2009 52.1194 53.5595 52.1194 56.8078C52.1194 60.0359 54.6502 62.4147 57.7562 62.4147ZM57.7562 53.4103C59.4586 53.4103 60.9255 54.7905 60.9255 56.8078C60.9255 58.8023 59.4586 60.2053 57.7562 60.2053C56.0537 60.2053 54.5869 58.8048 54.5869 56.8078C54.5869 54.7905 56.0537 53.4103 57.7562 53.4103ZM75.0465 51.5422V61.6057C75.0465 65.7464 72.5992 67.4376 69.7061 67.4376C66.9827 67.4376 65.3435 65.62 64.7254 64.1336L66.8737 63.2413C67.2563 64.1539 68.1936 65.2307 69.7035 65.2307C71.5554 65.2307 72.7031 64.0907 72.7031 61.9445V61.1381H72.6169C72.0647 61.8181 71.0006 62.4121 69.6579 62.4121C66.8484 62.4121 64.2744 59.9702 64.2744 56.828C64.2744 53.6631 66.8484 51.2009 69.6579 51.2009C70.9981 51.2009 72.0621 51.795 72.6169 52.4548H72.7031V51.5422H75.0465ZM72.8779 56.828C72.8779 54.8537 71.558 53.4103 69.8783 53.4103C68.1759 53.4103 66.7496 54.8537 66.7496 56.828C66.7496 58.7821 68.1759 60.2053 69.8783 60.2053C71.558 60.2053 72.8779 58.7821 72.8779 56.828ZM88.2884 58.6531L90.2036 59.9271C89.5855 60.8397 88.0959 62.4121 85.5219 62.4121C82.3298 62.4121 79.9459 59.9499 79.9459 56.8052C79.9459 53.4709 82.3501 51.1983 85.2458 51.1983C88.1617 51.1983 89.588 53.5139 90.0542 54.7652L90.31 55.4022L82.7985 58.5065C83.3736 59.6314 84.2679 60.2052 85.5219 60.2052C86.7785 60.2052 87.65 59.5884 88.2884 58.6531ZM82.3932 56.6358L87.4144 54.5554C87.1382 53.8552 86.3073 53.3673 85.3294 53.3673C84.0753 53.3673 82.3298 54.472 82.3932 56.6358Z" fill="#3D3D3D"/>
</svg>
