<svg width="112" height="112" viewBox="0 0 112 112" fill="none" xmlns="http://www.w3.org/2000/svg">
<rect width="112" height="112" rx="2" fill="#F1F3F5"/>
<path d="M48.2087 73C64.0588 73 72.726 59.9204 72.726 48.5787C72.726 48.2072 72.7184 47.8374 72.7017 47.4692C74.3842 46.2577 75.8467 44.7457 77 43.0246C75.4561 43.7082 73.7945 44.1684 72.0515 44.3759C73.8306 43.3133 75.1965 41.6323 75.8408 39.6284C74.1759 40.6115 72.3321 41.3261 70.369 41.7118C68.7965 40.0434 66.5579 39 64.079 39C59.3203 39 55.4613 42.8439 55.4613 47.5822C55.4613 48.2558 55.5369 48.9109 55.6848 49.5393C48.5229 49.1803 42.1724 45.7649 37.9228 40.5714C37.1828 41.8398 36.756 43.3133 36.756 44.8855C36.756 47.8633 38.2773 50.4923 40.5907 52.0302C39.177 51.9867 37.8489 51.6001 36.688 50.9567C36.6867 50.9927 36.6867 51.0278 36.6867 51.0663C36.6867 55.2231 39.657 58.6938 43.6 59.4803C42.8759 59.677 42.114 59.7824 41.3278 59.7824C40.7734 59.7824 40.2332 59.728 39.7082 59.6276C40.8053 63.038 43.9864 65.5197 47.758 65.5892C44.8088 67.8918 41.0934 69.2632 37.0555 69.2632C36.3608 69.2632 35.6745 69.2239 35 69.1444C38.8136 71.5793 43.3421 73 48.2091 73" fill="#3D3D3D"/>
</svg>
