<svg width="112" height="112" viewBox="0 0 112 112" fill="none" xmlns="http://www.w3.org/2000/svg">
<rect width="112" height="112" rx="2" fill="#F1F3F5"/>
<path d="M28.0154 40.9714L40.9715 83.3085L83.2807 70.3781L70.3267 28.0051L28.0154 40.9714Z" fill="#3D3D3D"/>
<path d="M82.0848 70.3203L82.9998 69.4579L70.3248 28.0011L69.2473 28.3304L82.0848 70.3203Z" fill="#3D3D3D"/>
<path d="M28.3315 40.8218L29.4112 41.6819L70.6507 29.0618L70.3259 28L28.3315 40.8218Z" fill="#3D3D3D"/>
<path d="M29.2108 41.0245L28.3328 42.009L40.9686 83.3056L42.036 82.9797L29.2108 41.0245Z" fill="#3D3D3D"/>
<path d="M56.8939 62.1353L52.9034 65.1661L43.2691 52.4798L47.2586 49.4502L56.8939 62.1353ZM45.0779 46.107C45.9974 47.3166 45.7589 49.0605 44.5493 49.98C43.3374 50.8984 41.5947 50.6609 40.6752 49.4502C39.7557 48.2395 39.9954 46.4968 41.205 45.5761C42.4157 44.6566 44.1584 44.8963 45.0779 46.107Z" fill="#F1F3F5"/>
<path d="M60.2337 44.2904L56.158 47.3234L60.1284 52.5504C61.0703 53.788 62.3919 54.0434 63.6295 53.1037C64.4538 52.4776 64.5334 52.1774 65.1874 50.8122L67.3826 53.7018C66.4183 55.3459 66.0868 55.8813 64.8481 56.821C62.206 58.8291 59.0028 59.3533 56.307 55.8018L52.1697 50.3541L50.2332 51.7944L50.231 50.7371V39.6659L51.0586 40.6112L54.0894 44.6006L58.1639 41.5677L60.2337 44.2904Z" fill="#F1F3F5"/>
<path d="M76.4513 47.8038C76.1142 48.0906 75.9215 48.2541 75.6975 48.4254C71.2399 51.809 66.3858 51.417 63.3775 47.4544C60.4297 43.5758 61.1185 38.7139 65.0273 35.7459C67.2191 34.0805 69.766 33.5485 72.2714 34.3638L74.069 40.2315L67.8374 44.9658C69.8164 47.0792 72.3599 47.2293 74.8642 45.3275C75.1297 45.1248 75.2798 44.9456 75.5116 44.7283L76.4513 47.8038ZM72.1628 38.5571C70.6822 36.9477 68.8409 36.6968 67.2998 37.8683C65.7329 39.0589 65.4865 40.8498 66.6591 42.737L72.1628 38.5571ZM66.9526 29.0304L65.0609 34.3885L63.1558 35.7235V30.1885L66.9526 29.0304Z" fill="#F1F3F5"/>
<path d="M44.3656 79.0093L43.716 79.5009L43.5916 79.3352C43.52 79.6219 43.3934 79.8089 43.1739 79.9747C42.6195 80.3958 41.8612 80.2536 41.3942 79.6342C40.916 79.0048 40.9932 78.2544 41.5846 77.8053C41.7716 77.663 41.9811 77.5746 42.2196 77.5275L41.4009 76.4512L42.0505 75.9573L44.3656 79.0093ZM42.5411 77.952C42.3966 77.9565 42.204 78.0192 42.0886 78.1077C41.7616 78.3552 41.7492 78.7382 42.0606 79.1493C42.3462 79.5256 42.7292 79.6309 43.0339 79.399C43.1728 79.2938 43.2467 79.1605 43.2904 78.9387L42.5411 77.952Z" fill="#F1F3F5"/>
<path d="M46.5081 77.0134C46.3446 77.5678 45.9559 77.8635 45.7946 77.9845C45.0711 78.5333 44.2815 78.4694 43.7921 77.8266C43.315 77.1949 43.4258 76.4053 44.0609 75.9226C44.6601 75.4678 45.4799 75.5182 46.0198 76.291L44.5391 77.4155C44.8393 77.765 45.2526 77.7918 45.6591 77.4827C45.9201 77.2867 46.0623 77.056 46.2001 76.6069L46.5081 77.0134ZM45.1887 76.3874C44.9479 76.1264 44.6478 76.0861 44.3969 76.2742C44.1426 76.4691 44.1012 76.7603 44.2938 77.0661L45.1887 76.3874Z" fill="#F1F3F5"/>
<path d="M47.2048 74.5024C46.7904 74.5405 46.4723 74.6995 46.3424 74.7981C46.2584 74.8642 46.124 74.993 46.2315 75.1352C46.404 75.3637 47.4355 74.5965 47.9586 75.2842C48.2845 75.7154 48.1647 76.188 47.6271 76.5957C47.2978 76.8454 46.9013 76.9832 46.7759 77L46.4287 76.5453C46.7075 76.4747 46.9808 76.4008 47.2272 76.2138C47.4187 76.0693 47.496 75.917 47.4243 75.8218C47.1981 75.5227 46.2136 76.3549 45.7007 75.6806C45.4139 75.2998 45.564 74.7824 46.0736 74.3971C46.3335 74.2011 46.5597 74.1003 46.8554 74.0443L47.2048 74.5024Z" fill="#F1F3F5"/>
<path d="M49.9108 72.4494C49.4953 72.4886 49.1772 72.6443 49.0484 72.744C48.9633 72.8078 48.8277 72.9378 48.9375 73.0822C49.11 73.3085 50.1404 72.5413 50.6645 73.2312C50.9893 73.6579 50.8695 74.1328 50.333 74.5393C50.0015 74.7902 49.6061 74.928 49.4796 74.947L49.1335 74.4912C49.4124 74.4217 49.6868 74.3467 49.9321 74.1608C50.1236 74.0129 50.2009 73.8617 50.1292 73.7699C49.9029 73.4697 48.9185 74.303 48.4055 73.6254C48.1177 73.2458 48.2689 72.7283 48.7785 72.3419C49.0372 72.1426 49.2634 72.044 49.5602 71.988L49.9108 72.4494Z" fill="#F1F3F5"/>
<path d="M53.0343 72.268C52.8473 72.5581 52.6613 72.7697 52.4429 72.9355C51.7194 73.4843 50.9298 73.4238 50.4415 72.7787C49.9621 72.1459 50.1122 71.3283 50.7909 70.8131C51.0015 70.6541 51.3106 70.5062 51.5861 70.42L51.9524 70.9061C51.7149 70.9441 51.4809 71.0449 51.3185 71.167C50.9298 71.4616 50.857 71.8849 51.1314 72.2478C51.4103 72.6129 51.8393 72.6689 52.21 72.3867C52.3668 72.268 52.4788 72.128 52.6837 71.8032L53.0343 72.268Z" fill="#F1F3F5"/>
<path d="M53.9829 71.7046L53.3344 72.1952L51.7709 70.1321L52.4182 69.6405L53.9829 71.7046ZM51.94 68.9461C52.0912 69.1443 52.052 69.4277 51.8549 69.5755C51.6578 69.7245 51.3755 69.6853 51.2266 69.4881C51.0754 69.2933 51.1134 69.0077 51.3117 68.8587C51.5099 68.7097 51.7899 68.7501 51.94 68.9461Z" fill="#F1F3F5"/>
<path d="M56.1456 69.6942C55.9821 70.2486 55.5923 70.5454 55.431 70.6664C54.7075 71.2163 53.919 71.1525 53.4285 70.5073C52.9514 69.8768 53.0622 69.0849 53.6984 68.6056C54.2976 68.1509 55.1174 68.1979 55.6562 68.9729L54.1755 70.0974C54.4779 70.4469 54.889 70.4726 55.2966 70.1624C55.5554 69.9664 55.6998 69.7379 55.8365 69.2877L56.1456 69.6942ZM54.8251 69.0704C54.5854 68.8072 54.2853 68.7669 54.0344 68.9573C53.7802 69.1488 53.7398 69.4411 53.9314 69.7457L54.8251 69.0704Z" fill="#F1F3F5"/>
<path d="M55.8625 67.4901C55.8882 67.0969 56.0148 66.8461 56.278 66.6456C56.6017 66.4014 57.1684 66.2592 57.6309 66.8673L58.6255 68.1777L57.977 68.6694L57.0228 67.4117C56.8021 67.1205 56.5725 67.1059 56.39 67.2459C56.2276 67.3669 56.1727 67.5449 56.1962 67.9269L57.2031 69.2563L56.5546 69.7469L54.99 67.6861L55.6385 67.1955L55.8625 67.4901Z" fill="#F1F3F5"/>
<path d="M60.6661 66.4731C60.4768 66.7643 60.2931 66.9726 60.0736 67.1418C59.3501 67.6917 58.5605 67.6267 58.0733 66.9816C57.5928 66.3521 57.7407 65.5345 58.4227 65.0193C58.6322 64.8592 58.9413 64.7102 59.2157 64.6262L59.5831 65.1101C59.3456 65.1481 59.1104 65.2501 58.9514 65.3733C58.5616 65.6656 58.4866 66.0889 58.761 66.4507C59.0399 66.8203 59.4699 66.873 59.8418 66.5907C59.9975 66.4731 60.1083 66.3331 60.3144 66.0072L60.6661 66.4731Z" fill="#F1F3F5"/>
<path d="M62.7886 64.6486C62.6239 65.2053 62.2342 65.5009 62.074 65.6241C61.3505 66.1707 60.5609 66.1069 60.0714 65.464C59.5921 64.8323 59.7052 64.0427 60.3391 63.5622C60.9394 63.1075 61.7593 63.1546 62.2969 63.9296L60.8174 65.0518C61.1186 65.4024 61.5308 65.427 61.9385 65.119C62.1961 64.923 62.3394 64.6923 62.4783 64.2421L62.7886 64.6486ZM61.467 64.0248C61.225 63.7638 60.9282 63.7224 60.6762 63.9128C60.4231 64.1054 60.3806 64.3978 60.5732 64.7035L61.467 64.0248Z" fill="#F1F3F5"/>
<path d="M63.4841 62.1421C63.0697 62.1802 62.7527 62.3381 62.6217 62.4355C62.5366 62.5005 62.4022 62.6315 62.5097 62.7738C62.6833 63.0022 63.7148 62.2328 64.2378 62.9205C64.5638 63.3528 64.4428 63.8221 63.9052 64.232C63.5748 64.4817 63.1806 64.6195 63.054 64.6385L62.7068 64.1827C62.9846 64.1133 63.2578 64.0382 63.5042 63.8501C63.6969 63.7056 63.7719 63.5544 63.7025 63.4614C63.4751 63.1613 62.4929 63.9923 61.9788 63.3169C61.6898 62.9373 61.8422 62.4198 62.3506 62.0334C62.6105 61.8341 62.8378 61.7355 63.1324 61.6773L63.4841 62.1421Z" fill="#F1F3F5"/>
<path d="M67.0735 60.0029C67.1687 60.3893 67.1866 60.6928 67.1295 60.9728L67.9202 61.1206L67.2673 61.6157L66.9805 61.563C66.8685 61.8609 66.6983 62.0894 66.4564 62.2731C66.0655 62.571 65.5929 62.5464 65.3465 62.2227C65.1594 61.9774 65.1661 61.6694 65.3677 61.2494C65.1124 61.1688 64.9455 61.0982 64.8111 60.9213C64.5681 60.601 64.6666 60.1552 65.0497 59.8674C65.4148 59.5885 65.8292 59.6086 66.0565 59.9066C66.2145 60.1149 66.2201 60.4083 66.0756 60.7622L66.6244 60.8776C66.649 60.7074 66.6423 60.5282 66.6143 60.3523L67.0735 60.0029ZM65.6556 60.2504C65.5772 60.1462 65.4394 60.1317 65.3207 60.2202C65.2053 60.3086 65.1751 60.4397 65.2468 60.5349C65.3084 60.6122 65.4741 60.6704 65.6455 60.6838C65.7329 60.4755 65.7362 60.3534 65.6556 60.2504ZM65.8191 61.3413C65.7441 61.5541 65.7441 61.6985 65.8191 61.8016C65.9244 61.9382 66.1338 61.9584 66.2828 61.8453C66.3791 61.7736 66.4743 61.6269 66.5213 61.4757L65.8191 61.3413Z" fill="#F1F3F5"/>
<path d="M56.9991 75.3569L56.3506 75.8475L56.2241 75.6829C56.1535 75.9685 56.0269 76.1544 55.8085 76.3224C55.253 76.7435 54.4959 76.599 54.0277 75.9808C53.5495 75.3502 53.6279 74.5998 54.217 74.1529C54.4052 74.0073 54.6135 73.9222 54.852 73.8718L54.0344 72.7955L54.6829 72.3049L56.9991 75.3569ZM55.1757 74.2997C55.0312 74.3041 54.8397 74.3646 54.7232 74.4531C54.3951 74.7029 54.3839 75.0837 54.6952 75.4969C54.982 75.8721 55.3639 75.9752 55.6685 75.7467C55.8063 75.6414 55.8813 75.5059 55.925 75.2841L55.1757 74.2997Z" fill="#F1F3F5"/>
<path d="M59.1451 73.36C58.9816 73.9144 58.5907 74.2101 58.4294 74.331C57.7048 74.8821 56.9152 74.8182 56.4268 74.1731C55.9475 73.5437 56.0606 72.7541 56.6956 72.2702C57.2937 71.8166 58.1147 71.8637 58.6523 72.6398L57.1727 73.7632C57.474 74.1126 57.8873 74.1362 58.2939 73.8293C58.5515 73.6322 58.6971 73.4037 58.8348 72.9534L59.1451 73.36ZM57.8078 72.7194C57.5648 72.4562 57.2679 72.4158 57.0171 72.6051C56.7628 72.7978 56.7225 73.0901 56.9118 73.3958L57.8078 72.7194Z" fill="#F1F3F5"/>
<path d="M61.2349 72.137L60.5853 72.6309L58.2703 69.58L58.9187 69.0883L61.2349 72.137Z" fill="#F1F3F5"/>
<path d="M60.5158 69.6853L60.1272 69.9843L59.5638 69.4646L59.155 68.9237L59.7587 68.4656L60.1686 69.0043L60.5158 69.6853Z" fill="#F1F3F5"/>
<path d="M63.0717 70.7426L62.4244 71.2331L60.8609 69.1723L61.506 68.6795L63.0717 70.7426ZM61.0289 67.9851C61.1789 68.1811 61.1386 68.4678 60.9437 68.6146C60.7455 68.7646 60.4633 68.7277 60.3143 68.5294C60.1642 68.3323 60.2023 68.0501 60.4005 67.9C60.5977 67.7499 60.8799 67.788 61.0289 67.9851Z" fill="#F1F3F5"/>
<path d="M62.7066 68.2349C62.7301 67.8395 62.8589 67.5897 63.1221 67.3893C63.4447 67.1451 64.0136 67.0029 64.4751 67.6088L65.4696 68.9203L64.8212 69.4131L63.868 68.1553C63.6463 67.8653 63.4156 67.8507 63.233 67.9907C63.0717 68.1128 63.0168 68.2875 63.0392 68.6717L64.0472 70.0011L63.3965 70.4917L61.833 68.432L62.4815 67.9381L62.7066 68.2349Z" fill="#F1F3F5"/>
<path d="M67.8588 67.1093L67.2103 67.6009L67.0837 67.4352C67.0143 67.723 66.8877 67.9101 66.6693 68.0758C66.1127 68.4958 65.3556 68.3513 64.8874 67.7353C64.4092 67.1048 64.4876 66.3544 65.0789 65.9053C65.266 65.7642 65.4743 65.6745 65.7128 65.6286L64.8964 64.5501L65.5426 64.0584L67.8588 67.1093ZM65.9805 66.0912C65.8338 66.0957 65.6412 66.1595 65.5247 66.2446C65.1976 66.4933 65.1864 66.8752 65.4989 67.2885C65.7834 67.6637 66.1653 67.7689 66.4711 67.5371C66.6088 67.433 66.6839 67.2997 66.7264 67.0757L65.9805 66.0912Z" fill="#F1F3F5"/>
<path d="M69.3639 65.4987C69.3381 65.8918 69.2116 66.1438 68.9517 66.3398C68.5463 66.6478 68.0053 66.6635 67.6032 66.1304L66.6008 64.8099L67.2504 64.3182L68.217 65.5939C68.4365 65.8851 68.6706 65.8694 68.842 65.7406C69.0402 65.5917 69.1029 65.3027 69.0167 65.0507L68.0187 63.7358L68.6706 63.2397L70.2364 65.3038L69.5879 65.7944L69.3639 65.4987Z" fill="#F1F3F5"/>
<path d="M70.8379 62.4971C70.4224 62.5352 70.1055 62.6942 69.9755 62.7928C69.8893 62.8566 69.756 62.9877 69.8624 63.1288C70.036 63.3584 71.0675 62.5912 71.5906 63.2777C71.9165 63.7078 71.7955 64.1827 71.259 64.587C70.9275 64.8379 70.531 64.9779 70.4045 64.9936L70.0595 64.54C70.3362 64.4683 70.6117 64.3955 70.857 64.2073C71.0485 64.0629 71.1258 63.9128 71.0541 63.8187C70.829 63.5197 69.8456 64.3496 69.3315 63.6742C69.0437 63.2923 69.1938 62.7771 69.7045 62.3907C69.9632 62.1925 70.1906 62.0905 70.4862 62.0379L70.8379 62.4971Z" fill="#F1F3F5"/>
<path d="M72.4876 61.04L71.7349 61.6101L72.38 62.4624C72.5335 62.6629 72.7485 62.7054 72.9479 62.5497C73.0834 62.4489 73.1842 62.3246 73.2928 62.1018L73.6479 62.5721C73.49 62.8376 73.3466 63.0033 73.1472 63.1545C72.7183 63.4827 72.1975 63.5667 71.7596 62.991L71.0876 62.104L70.7908 62.3291L70.6956 62.2026L70.8266 60.583L70.9072 60.5192L71.3978 61.1677L72.1482 60.5998L72.4876 61.04Z" fill="#F1F3F5"/>
<path d="M73.3767 60.5987L73.3857 60.5897C73.2524 60.0152 73.3129 59.6512 73.5638 59.4585C73.6926 59.3622 73.8415 59.3275 74.1372 59.3208L74.3914 60.0309C74.1406 60.0533 73.995 60.0902 73.893 60.1709C73.6556 60.349 73.6735 60.6883 73.8202 61.1766L74.4956 62.0682L73.8471 62.561L72.2825 60.4968L72.931 60.0062L73.3767 60.5987Z" fill="#F1F3F5"/>
<path d="M76.2698 60.7186L75.6213 61.2091L74.0578 59.1483L74.7051 58.6566L76.2698 60.7186ZM74.2246 57.9634C74.3747 58.1594 74.3366 58.4416 74.1395 58.5928C73.9435 58.7418 73.659 58.7026 73.5101 58.5066C73.36 58.3106 73.3992 58.025 73.5952 57.8771C73.7946 57.7282 74.0779 57.7674 74.2246 57.9634Z" fill="#F1F3F5"/>
<path d="M78.4313 58.7104C78.2678 59.2648 77.8769 59.5605 77.7179 59.6837C76.9932 60.2302 76.2037 60.1686 75.7153 59.5235C75.236 58.893 75.348 58.1034 75.983 57.6218C76.5822 57.167 77.4021 57.2141 77.9408 57.988L76.4601 59.1136C76.7625 59.463 77.1747 59.4866 77.5824 59.1786C77.84 58.9826 77.9844 58.7541 78.1222 58.3038L78.4313 58.7104ZM77.112 58.0843C76.87 57.8245 76.5721 57.7842 76.3213 57.9734C76.067 58.1661 76.0278 58.4573 76.2171 58.7642L77.112 58.0843Z" fill="#F1F3F5"/>
<path d="M33.9797 60.4688L33.9977 60.4386C34.6417 59.0621 35.6788 57.7808 37.09 56.709C38.3825 55.7278 40.2853 54.8038 41.9821 54.2965L44.2378 57.2678C42.7751 57.5109 41.3337 58.128 40.3425 58.8795C37.949 60.6995 37.4943 63.299 39.1866 65.529C40.9002 67.7846 43.5423 68.1206 45.826 66.388C46.7892 65.6566 47.4746 64.7875 48.7346 62.7917L50.9085 65.651C49.7516 67.443 48.6114 68.7411 47.2641 69.767C43.8514 72.3565 40.0737 72.7586 37.202 71.0136L33.9797 60.4688Z" fill="#F1F3F5"/>
<path d="M82.963 70.4726L81.8687 69.6125L40.6382 82.2282L40.9686 83.3056L82.963 70.4726Z" fill="#3D3D3D"/>
<path d="M70.6508 29.064L69.5723 29.3944L69.2463 28.3304L70.3271 28L70.6508 29.064Z" fill="#3D3D3D"/>
<path d="M82.1979 70.7034L81.8687 69.6125L82.9472 69.2854L83.2787 70.3763L82.1979 70.7034Z" fill="#3D3D3D"/>
<path d="M28.3326 42.0101L28 40.9226L29.0774 40.5933L29.4179 41.6819L28.3326 42.0101Z" fill="#3D3D3D"/>
<path d="M42.0359 82.9774L40.9675 83.3056L40.6382 82.2259L41.7067 81.9011L42.0359 82.9774Z" fill="#3D3D3D"/>
</svg>
