<svg width="112" height="112" viewBox="0 0 112 112" fill="none" xmlns="http://www.w3.org/2000/svg">
<rect width="112" height="112" rx="2" fill="#F1F3F5"/>
<path d="M41.231 75.4113C41.231 75.4113 41.231 75.9183 41.2315 76.1595C41.3039 76.0213 41.7804 75.2399 42.7373 75.2399H43.0338V76.531H42.7306C41.8528 76.531 41.3665 77.156 41.3665 77.9343V80.8074H39.8008V75.4113H41.231Z" fill="#3D3D3D"/>
<path d="M57.5904 76.0659V75.4113H59.0201V82.7169H57.4509V80.8073H55.8297C54.1828 80.8073 52.9009 79.5616 52.9009 78.0248C52.9009 76.4356 54.2455 75.2399 55.7424 75.2399C56.9574 75.2399 57.5904 76.0659 57.5904 76.0659ZM57.4509 78.037C57.4509 77.2185 56.7515 76.5599 55.8953 76.5599C55.0516 76.5599 54.3656 77.1823 54.3408 77.9922C54.3157 78.8177 54.9937 79.5142 55.8953 79.5142L57.4509 79.5136V78.037" fill="#3D3D3D"/>
<path fill-rule="evenodd" clip-rule="evenodd" d="M38.2457 73.4288V74.7248H36.6799V73.4288H38.2457ZM38.2457 75.4114V80.8074H36.6799V75.4114H38.2457Z" fill="#3D3D3D"/>
<path d="M33.4006 80.8074V78.3696H30.585V80.8074H29L29.0018 76.516C29.0018 74.8127 30.5164 73.4288 32.3916 73.4288H34.9858V80.8074H33.4006V80.8074ZM32.3916 74.7248C31.3954 74.7248 30.5855 75.4614 30.5855 76.3742V77.1447H33.4004L33.4006 74.7248H32.3916Z" fill="#3D3D3D"/>
<path fill-rule="evenodd" clip-rule="evenodd" d="M51.785 75.4114V80.8074H50.2192V75.4114H51.785ZM51.785 73.4288V74.7248H50.2192V73.4288H51.785Z" fill="#3D3D3D"/>
<path fill-rule="evenodd" clip-rule="evenodd" d="M69.107 75.4114V80.8074H67.5413V75.4114H69.107ZM69.107 73.4288V74.7248H67.5413V73.4288H69.107Z" fill="#3D3D3D"/>
<path fill-rule="evenodd" clip-rule="evenodd" d="M60.4016 75.4114H61.9669V78.4269C61.9669 79.2488 62.5917 79.6871 63.1993 79.6871C63.7863 79.6871 64.4684 79.3106 64.4684 78.4271V75.4114H66.0336V80.8092H64.6034V80.1556L64.5795 80.1818C64.1249 80.6815 63.4851 80.9803 62.7461 80.9803C61.5448 80.9803 60.4031 80.0286 60.4031 78.6491L60.4016 75.4114Z" fill="#3D3D3D"/>
<path d="M47.1445 73.4288V79.5136H49.1851V80.8038L45.5593 80.8074V73.4288H47.1445Z" fill="#3D3D3D"/>
<path d="M74.9105 80.1529V80.8071H76.3402V73.4288H74.7712V75.4114H73.15C71.5031 75.4114 70.2217 76.6572 70.2217 78.1942C70.2217 79.7832 71.5658 80.9787 73.0627 80.9787C74.2775 80.9787 74.9105 80.1529 74.9105 80.1529V80.1529ZM74.7712 78.182C74.7712 79.0001 74.0715 79.6585 73.2156 79.6585C72.3722 79.6585 71.6862 79.0363 71.6616 78.2265C71.6357 77.401 72.314 76.7047 73.2156 76.7047L74.7712 76.7052V78.182" fill="#3D3D3D"/>
<path d="M80.607 80.9803C78.8659 80.9803 77.4536 79.6951 77.4536 78.11C77.4536 76.5246 78.8644 75.2393 80.6055 75.2393C82.3476 75.2393 83.6525 76.5259 83.6525 78.11C83.6525 78.2661 83.6465 78.4171 83.6251 78.5966L78.9542 78.5972C79.187 79.2663 79.8034 79.7457 80.6055 79.7457C81.3477 79.7457 81.8007 79.5231 82.1738 79.1018L83.3003 79.8101C82.6891 80.5308 81.7514 80.9803 80.607 80.9803V80.9803ZM78.9582 77.6112H82.1531C81.9263 76.9425 81.4042 76.4743 80.6055 76.4743C79.8049 76.4743 79.185 76.9519 78.9582 77.6112Z" fill="#3D3D3D"/>
<path d="M56.6028 40.6938C60.922 40.6938 64.423 44.2111 64.423 48.5481V56.4027H56.6028C52.2837 56.4027 48.7822 52.8865 48.7822 48.5481C48.7822 44.2111 52.2837 40.6938 56.6028 40.6938ZM69.7011 61.7051H56.6022C49.3669 61.7051 43.5025 55.8149 43.5025 48.5495C43.5025 41.2824 49.3669 35.3921 56.6022 35.3921C63.8364 35.3921 69.7011 41.2824 69.7011 48.5495V61.7051ZM56.6264 30H38.1353V48.5722C38.1353 58.8303 46.4142 67.1429 56.6264 67.1429C66.8388 67.1429 75.118 58.8303 75.118 48.5722C75.118 38.3155 66.8388 30 56.6264 30Z" fill="#3D3D3D"/>
</svg>
