<svg width="112" height="112" viewBox="0 0 112 112" fill="none" xmlns="http://www.w3.org/2000/svg">
<rect width="112" height="112" rx="2" fill="#F1F3F5"/>
<path fill-rule="evenodd" clip-rule="evenodd" d="M86.6804 54.0919C78.7329 48.4519 67.9978 45 56.1804 45C44.363 45 33.6279 48.4519 25.6804 54.0919H86.6804Z" fill="url(#paint0_linear)"/>
<path d="M51.7311 55.7063C51.1627 55.7063 50.8675 56.1524 50.791 56.7047C50.7035 57.3102 50.3756 59.4132 50.31 59.9442C50.2663 60.2629 50.2444 60.6028 49.9274 60.7408C49.6104 60.8789 49.2168 60.6665 48.8888 60.3903C48.5609 60.1142 43.6525 56.0568 43.6525 56.0568C43.3682 55.8125 43.0184 55.7063 42.6795 55.7063C41.9362 55.7063 41.2256 56.1524 41.2256 57.2464V64.0122C41.2256 64.5433 41.6082 64.8725 42.0673 64.8725C42.5702 64.8725 42.8982 64.5433 42.9747 64.0759C42.9747 64.0759 43.5104 60.8471 43.5759 60.4966C43.6525 60.0823 43.7181 59.7531 44.1335 59.6256C44.5052 59.5088 44.8659 59.7212 45.3906 60.1779C45.9154 60.624 50.3319 64.5008 50.3319 64.5008C50.6707 64.777 50.9113 64.8938 51.3923 64.8938C51.8295 64.8938 52.6166 64.7238 52.6166 63.428V56.6835C52.6166 56.0462 52.2231 55.7063 51.7311 55.7063Z" fill="#3D3D3D"/>
<path d="M83.3352 62.9076C79.4871 63.7148 75.0816 62.8545 75.0816 60.2098C75.0816 58.213 76.9947 57.3951 78.4923 57.2783C80.0665 57.1508 81.3018 57.4801 81.9359 58.1174C82.3294 58.521 82.2201 59.0627 81.444 59.1052C80.7224 59.1476 79.3778 59.1901 78.2628 59.2326C77.6287 59.2539 77.2898 59.5831 77.2898 60.0292C77.2898 60.3797 77.5631 60.7833 78.2956 60.7833C79.345 60.7833 82.0015 60.8046 83.3242 60.8046C84.1988 60.8046 84.6251 60.3372 84.6251 59.3601C84.6251 57.82 83.1821 55.4727 78.9733 55.4727C75.1581 55.4727 72.3923 57.3208 72.3923 60.3372C72.3923 64.6176 78.8859 65.9241 83.6303 64.3415C84.0785 64.1928 84.494 63.8741 84.3628 63.3856C84.2425 62.9607 83.8818 62.8014 83.3352 62.9076Z" fill="#3D3D3D"/>
<path d="M38.6784 62.9076C34.8304 63.7148 30.4248 62.8545 30.4248 60.2098C30.4248 58.213 32.3379 57.3951 33.8356 57.2783C35.4098 57.1508 36.6451 57.4801 37.2791 58.1174C37.6727 58.521 37.5634 59.0627 36.7872 59.1052C36.0657 59.1476 34.7211 59.1901 33.606 59.2326C32.972 59.2539 32.6331 59.5831 32.6331 60.0292C32.6331 60.3797 32.9064 60.7833 33.6388 60.7833C34.6883 60.7833 37.3447 60.8046 38.6675 60.8046C39.542 60.8046 39.9684 60.3372 39.9684 59.3601C39.9684 57.82 38.5254 55.4727 34.3166 55.4727C30.5014 55.4727 27.7356 57.3208 27.7356 60.3372C27.7356 64.6176 34.2291 65.9241 38.9736 64.3415C39.4218 64.1928 39.8372 63.8741 39.706 63.3856C39.5967 62.9607 39.225 62.8014 38.6784 62.9076Z" fill="#3D3D3D"/>
<path d="M68.4897 58.7971C68.5772 61.1338 68.7958 63.0669 68.8614 63.7467C68.938 64.6176 69.408 64.8725 69.8781 64.8725C70.3263 64.8725 70.8073 64.6495 70.8838 63.7573C70.9494 63.0138 71.179 60.6983 71.2883 58.4148C71.2992 58.2979 71.2118 58.2448 71.1134 58.2661L68.61 58.659C68.5444 58.6697 68.4897 58.7228 68.4897 58.7971Z" fill="#3D3D3D"/>
<path d="M69.8889 55.4833C68.7411 55.4833 68.4022 56.3542 68.4131 56.8959C68.4131 56.9915 68.424 57.2677 68.4459 57.6182C68.4459 57.6925 68.5224 57.7669 68.6208 57.7562L71.2335 57.342C71.321 57.3208 71.3538 57.2677 71.3647 57.2039C71.3756 57.0871 71.3756 56.9596 71.3756 56.9065C71.3866 56.3861 71.0477 55.4833 69.8889 55.4833Z" fill="#3D3D3D"/>
<path d="M66.0519 59.2114C65.1773 59.2114 62.4881 59.2326 60.7718 59.2326C59.9409 59.2326 59.7332 59.6681 59.7332 60.0292C59.7332 60.3479 59.9519 60.7515 60.739 60.794C61.9305 60.8577 63.4391 60.9214 64.1278 60.9533C65.068 60.9958 65.0789 61.4737 64.7619 61.8667C64.1278 62.6739 62.5755 63.205 60.9685 63.205C58.8696 63.205 56.552 62.0473 56.552 60.1992C56.552 58.4679 58.5307 56.5667 64.4121 57.3739C64.9259 57.4482 65.4397 57.3526 65.5709 56.8853C65.702 56.3861 65.3741 56.0781 64.7072 55.8975C63.3735 55.5576 62.1601 55.4727 61.0013 55.4727C57.044 55.4727 53.8628 57.3102 53.8628 60.2735C53.8628 63.4387 57.0221 64.9894 60.9685 64.9894C65.3741 64.9894 67.5167 62.6633 67.5167 60.624C67.5058 59.6044 66.9592 59.2114 66.0519 59.2114Z" fill="#3D3D3D"/>
<defs>
<linearGradient id="paint0_linear" x1="56.1803" y1="54.0928" x2="56.1803" y2="45" gradientUnits="userSpaceOnUse">
<stop stop-color="#3D3D3D" stop-opacity="0"/>
<stop offset="1" stop-color="#3D3D3D"/>
</linearGradient>
</defs>
</svg>
