<svg width="112" height="112" viewBox="0 0 112 112" fill="none" xmlns="http://www.w3.org/2000/svg">
<rect width="112" height="112" rx="2" fill="#F1F3F5"/>
<path d="M16.001 64V48H96.0007V64H16.001V64Z" fill="#3D3D3D"/>
<path d="M78.0297 60.8661H16V61.8676H77.7345L78.0297 60.8661Z" fill="white"/>
<path d="M28.4264 51.7205L25.8538 55.556C25.8538 55.556 26.0175 53.5493 26.0579 53.0658C26.0883 52.6978 26.0427 51.7205 25.1305 51.7205C24.2452 51.7205 21.0481 51.7205 21.0481 51.7205L18.3706 58.8631H21.563L23.5021 53.6967L23.0933 58.8631H25.9299L29.4098 53.7869L27.5111 58.8631H30.7239L33.4009 51.7205H28.4264" fill="white"/>
<path d="M45.8157 58.7306C45.6598 58.7564 44.4397 58.9868 43.1586 59.0213C40.8726 59.0832 38.8799 58.1847 38.8621 56.5637C38.8306 53.7545 41.7227 52.2154 43.855 51.7865C44.8112 51.5948 46.6528 51.3834 48.4864 51.8277L47.4211 54.3369C47.1156 53.654 46.329 53.6411 46.0067 53.6344C45.2274 53.6184 44.584 53.8205 44.1091 54.0338C43.0311 54.5189 42.0922 56.074 43.6168 56.6735C44.4628 57.0059 45.5397 56.7405 46.6633 56.5657L45.8157 58.7306" fill="white"/>
<path d="M78.575 58.8631H75.0515L77.7264 51.7205H81.251L78.575 58.8631" fill="white"/>
<path d="M36.277 58.8631H32.7529L35.432 51.7205H38.9524L36.277 58.8631" fill="white"/>
<path d="M55.2821 51.7205L54.3117 54.2931H52.54L53.5035 51.7205H50.1438L47.4746 58.8636H50.8218L51.7355 56.443H53.5098L52.5972 58.8636H55.9513L58.633 51.7205H55.2821" fill="white"/>
<path d="M71.4182 56.4905L73.2031 51.7205H69.7782L67.0991 58.8636H73.9798L74.8693 56.4905H71.4182Z" fill="white"/>
<path d="M89.936 51.7205L88.0992 56.6224C88.1244 56.1286 88.2246 54.1792 88.286 53.056C88.3112 52.5942 88.2094 52.2411 87.9832 52.0066C87.7103 51.7236 87.3482 51.7205 87.3445 51.7205H83.2521L80.5767 58.8636H83.5481L85.4447 53.805L85.2206 58.8636H90.2057L92.8817 51.7205H89.936" fill="white"/>
<path d="M61.9901 56.9353L62.2914 56.142H66.1172L66.7747 54.3838H62.9484L63.2418 53.5911H67.2581L67.965 51.7205H60.6204L57.9434 58.8636H65.3709L66.0909 56.9353H61.9901" fill="white"/>
</svg>
