<svg width="112" height="112" viewBox="0 0 112 112" fill="none" xmlns="http://www.w3.org/2000/svg">
<rect width="112" height="112" rx="2" fill="#F1F3F5"/>
<path d="M38.1744 75.8647C37.3989 75.8647 36.8326 76.2499 36.8326 76.9871C36.8326 77.6777 37.3248 78.1589 38.0637 78.1589C38.5565 78.1589 39.0492 77.8892 39.3568 77.5035V76.5202C39.3568 76.1922 38.9255 75.8647 38.1744 75.8647V75.8647ZM54.9355 75.7285C54.9721 77.0227 55.8099 77.9589 57.2507 77.9589C58.1255 77.9589 58.7908 77.492 59.0243 77.1987C59.135 77.2809 59.2465 77.4038 59.2465 77.6897C59.2465 78.3335 58.4579 79.2241 56.6229 79.2241C54.7761 79.2241 53.2725 77.7733 53.2725 75.8767C53.2725 73.7885 54.6645 72.2962 56.7218 72.2962C58.592 72.2962 59.4552 73.6532 59.4552 74.8089C59.4552 75.1497 59.3811 75.4652 59.2329 75.7285H54.9355V75.7285ZM57.547 74.892C57.8424 74.892 57.855 74.7216 57.855 74.4934C57.8424 73.8126 57.2994 73.1821 56.4752 73.1821C55.4039 73.1821 54.9848 74.0666 54.9482 74.892H57.547V74.892ZM74.9228 75.6061C74.9228 77.1876 75.1455 77.9936 76.1807 77.9936C77.3115 77.9936 77.621 76.9987 77.621 76.0948V74.3696C77.621 73.777 77.3359 73.547 76.6842 73.6163C76.4137 72.9502 77.3115 72.5262 77.8184 72.4287C77.9768 72.4047 78.1254 72.3807 78.2624 72.3807C78.9755 72.3807 79.2493 72.819 79.2493 73.474C79.2493 73.7146 79.2254 74.1534 79.2254 75.9687C79.2254 76.7363 79.2127 77.1414 79.2127 77.2684C79.2127 77.8661 79.4935 78.1705 80.1448 78.1007C80.4115 78.7682 79.5193 79.0846 79.0102 79.1774C78.854 79.2005 78.712 79.2241 78.5948 79.2241C77.9177 79.2241 77.7804 78.7913 77.6439 78.1709C77.5483 78.2873 77.4602 78.3825 77.2764 78.5571C76.8328 78.9663 76.2543 79.2125 75.6007 79.2125C74.8862 79.2125 74.2828 78.9423 73.9007 78.4989C73.31 77.8084 73.31 76.9183 73.31 75.6185V74.3701C73.31 73.7775 73.0263 73.5474 72.3741 73.6167C72.1032 72.9507 73.0029 72.5267 73.5073 72.4292C73.6672 72.4052 73.8144 72.3812 73.9504 72.3812C74.664 72.3812 74.9354 72.8195 74.9354 73.4745L74.9228 75.6061V75.6061ZM71.8078 75.7419C71.8078 73.6902 70.367 72.2957 68.3716 72.2957C66.5249 72.2957 64.8863 73.6902 64.8863 75.7419C64.8863 77.8195 66.4255 79.212 68.3102 79.212C70.3047 79.212 71.8078 77.7964 71.8078 75.7419ZM40.8965 77.5497C40.8965 78.073 41.2406 78.2398 41.8445 78.322C41.8075 78.9298 41.3761 79.1654 40.8716 79.212C40.3048 79.2587 39.7506 79 39.5293 78.4171C39.2701 78.649 38.5068 79.2351 37.5091 79.2351C36.1424 79.2351 35.1199 78.3331 35.1199 77.1044C35.1199 75.8056 36.2653 75.0361 37.8785 75.0361C38.4337 75.0361 39.0113 75.1497 39.3563 75.3257V74.456C39.3563 73.6768 39.0113 73.1821 38.113 73.1821C37.9278 73.1821 37.5218 73.2301 37.2011 73.3502C37.2381 73.4735 37.2634 73.6052 37.2634 73.7262C37.2634 74.2019 36.9554 74.5876 36.4383 74.5876C35.9821 74.5876 35.637 74.2255 35.637 73.7631C35.637 72.9137 36.7214 72.2952 38.2241 72.2952C39.4187 72.2952 40.1459 72.5742 40.5275 73.0588C40.8716 73.4851 40.8965 74.1405 40.8965 75.0865V77.5497V77.5497ZM70.0468 75.8416C70.0468 77.4181 69.3567 78.2749 68.3843 78.2749C67.5221 78.2749 66.6847 77.4185 66.6847 75.5488C66.6847 74.092 67.3003 73.1825 68.3102 73.1825C69.3074 73.182 70.0468 74.1904 70.0468 75.8416ZM45.7729 73.4486C45.81 73.8624 46.1672 74.1525 46.5854 74.1525C47.1152 74.1525 47.4354 73.6897 47.4354 73.2417C47.4354 72.6103 46.9183 72.2832 46.4007 72.2832C45.81 72.2832 45.1817 72.7207 44.8249 73.3747L44.8001 73.3867C44.6894 72.8056 44.4058 72.3673 43.8146 72.3673C43.6791 72.3673 43.5314 72.3922 43.3715 72.4403C42.8788 72.5858 42.1521 72.9608 42.4235 73.6278C43.1132 73.4971 43.3593 73.7257 43.3593 74.3183V77.14C43.3593 77.7003 43.2857 77.9349 43.0883 78.0994C42.9031 78.2388 42.7067 78.2966 42.5834 78.3206C42.3002 78.9284 42.8544 79.1178 44.2215 79.1178C45.5887 79.1178 46.0566 78.9289 45.7734 78.3206C45.6501 78.2961 45.3055 78.2384 45.1208 78.0994C44.9234 77.9349 44.8376 77.7003 44.8376 77.14V75.4379C44.8371 73.9206 45.4035 73.5216 45.7729 73.4486V73.4486ZM62.7193 72.4648H64.4802C64.6898 72.9613 64.4066 73.3618 64.0123 73.3987C63.889 73.4116 63.7535 73.4116 63.6307 73.4116C63.31 73.4116 62.9903 73.3867 62.7685 73.3867V77.1405C62.7685 77.7007 62.8669 77.9354 63.0639 78.0998C63.2491 78.2393 63.6804 78.297 63.8037 78.3211C64.0869 78.9289 63.4211 79.1183 62.0544 79.1183C60.6878 79.1183 60.1214 78.9294 60.4041 78.3211C60.527 78.2966 60.7248 78.2388 60.9091 78.0998C61.106 77.9354 61.1796 77.7007 61.1796 77.1405V73.3613L60.1453 73.3253C59.9357 72.8297 60.2189 72.4768 60.6376 72.4768H61.1557V71.9913C61.1557 71.0084 61.3399 70.462 61.5865 70.098C61.9677 69.5156 62.6208 69.1156 63.6424 69.1156C64.9359 69.1156 65.9824 69.7101 65.9824 70.6075C65.9824 70.996 65.7114 71.4689 65.1451 71.4689C64.7268 71.4689 64.3325 71.117 64.3325 70.6809C64.3325 70.498 64.4066 70.304 64.5046 70.1835C64.3574 70.0135 64.0494 69.9281 63.7535 69.9281C62.9035 69.9281 62.7193 70.547 62.7193 71.3234V72.4648V72.4648ZM51.3765 73.4486C51.4136 73.8624 51.7708 74.1525 52.1895 74.1525C52.7193 74.1525 53.0391 73.6897 53.0391 73.2417C53.0391 72.6103 52.5219 72.2832 52.0048 72.2832C51.4136 72.2832 50.7853 72.7207 50.429 73.3747L50.4037 73.3867C50.2935 72.8056 50.0099 72.3673 49.4186 72.3673C49.2836 72.3673 49.1355 72.3922 48.9756 72.4403C48.4824 72.5858 47.7557 72.9608 48.0271 73.6278C48.7168 73.4971 48.9625 73.7257 48.9625 74.3183V77.14C48.9625 77.7003 48.8893 77.9349 48.6919 78.0994C48.5072 78.2388 48.3108 78.2966 48.1879 78.3206C47.9043 78.9284 48.4589 79.1178 49.8251 79.1178C51.1918 79.1178 51.6607 78.9289 51.377 78.3206C51.2542 78.2961 50.9096 78.2384 50.7244 78.0994C50.5275 77.9349 50.4412 77.7003 50.4412 77.14V75.4379C50.4407 73.9206 51.0071 73.5216 51.3765 73.4486V73.4486ZM84.1543 73.4486C84.1956 73.8624 84.5556 74.1525 84.9762 74.1525C85.4985 74.1525 85.8187 73.6897 85.8187 73.2417C85.8187 72.6103 85.3091 72.2832 84.7844 72.2832C84.1956 72.2832 83.5743 72.7207 83.2185 73.3747L83.1824 73.3867C83.0746 72.8056 82.7886 72.3673 82.2081 72.3673C82.0637 72.3673 81.9235 72.3922 81.7548 72.4403C81.269 72.5858 80.5447 72.9608 80.8086 73.6278C81.5006 73.4971 81.743 73.7257 81.743 74.3183V77.14C81.743 77.7003 81.6722 77.9349 81.4688 78.0994C81.292 78.2388 81.089 78.2966 80.9713 78.3206C80.6853 78.9284 81.2447 79.1178 82.6109 79.1178C83.9775 79.1178 84.4398 78.9289 84.1538 78.3206C84.0366 78.2961 83.692 78.2384 83.5003 78.0994C83.3127 77.9349 83.2297 77.7003 83.2297 77.14V75.4379C83.2303 73.9206 83.7867 73.5216 84.1543 73.4486" fill="#3D3D3D"/>
<path d="M38.1744 75.8647C37.3989 75.8647 36.8326 76.2499 36.8326 76.9871C36.8326 77.6777 37.3248 78.1589 38.0637 78.1589C38.5565 78.1589 39.0492 77.8892 39.3568 77.5035V76.5202C39.3568 76.1922 38.9255 75.8647 38.1744 75.8647V75.8647ZM54.9355 75.7285C54.9721 77.0227 55.8099 77.9589 57.2507 77.9589C58.1255 77.9589 58.7908 77.492 59.0243 77.1987C59.135 77.2809 59.2465 77.4038 59.2465 77.6897C59.2465 78.3335 58.4579 79.2241 56.6229 79.2241C54.7761 79.2241 53.2725 77.7733 53.2725 75.8767C53.2725 73.7885 54.6645 72.2962 56.7218 72.2962C58.592 72.2962 59.4552 73.6532 59.4552 74.8089C59.4552 75.1497 59.3811 75.4652 59.2329 75.7285H54.9355V75.7285ZM57.547 74.892C57.8424 74.892 57.855 74.7216 57.855 74.4934C57.8424 73.8126 57.2994 73.1821 56.4752 73.1821C55.4039 73.1821 54.9848 74.0666 54.9482 74.892H57.547V74.892ZM74.9228 75.6061C74.9228 77.1876 75.1455 77.9936 76.1807 77.9936C77.3115 77.9936 77.621 76.9987 77.621 76.0948V74.3696C77.621 73.777 77.3359 73.547 76.6842 73.6163C76.4137 72.9502 77.3115 72.5262 77.8188 72.4287C77.9768 72.4047 78.1254 72.3807 78.2624 72.3807C78.9755 72.3807 79.2493 72.819 79.2493 73.474C79.2493 73.7146 79.2254 74.1534 79.2254 75.9687C79.2254 76.7363 79.2127 77.1414 79.2127 77.2684C79.2127 77.8661 79.4935 78.1705 80.1448 78.1007C80.4115 78.7682 79.5193 79.0846 79.0102 79.1774C78.854 79.2005 78.712 79.2241 78.5948 79.2241C77.9177 79.2241 77.7804 78.7913 77.6439 78.1709C77.5483 78.2873 77.4602 78.3825 77.2764 78.5571C76.8328 78.9663 76.2543 79.2125 75.6007 79.2125C74.8862 79.2125 74.2828 78.9423 73.9007 78.4989C73.31 77.8084 73.31 76.9183 73.31 75.6185V74.3701C73.31 73.7775 73.0263 73.5474 72.3741 73.6167C72.1032 72.9507 73.0029 72.5267 73.5073 72.4292C73.6672 72.4052 73.8144 72.3812 73.9504 72.3812C74.664 72.3812 74.9354 72.8195 74.9354 73.4745L74.9228 75.6061V75.6061ZM71.8078 75.7419C71.8078 73.6902 70.367 72.2957 68.3716 72.2957C66.5249 72.2957 64.8863 73.6902 64.8863 75.7419C64.8863 77.8195 66.4255 79.212 68.3102 79.212C70.3047 79.212 71.8078 77.7964 71.8078 75.7419V75.7419ZM40.8965 77.5497C40.8965 78.073 41.2406 78.2398 41.8445 78.322C41.8075 78.9298 41.3761 79.1654 40.8716 79.212C40.3048 79.2587 39.7506 79 39.5293 78.4171C39.2701 78.649 38.5068 79.2351 37.5091 79.2351C36.1424 79.2351 35.1199 78.3331 35.1199 77.1044C35.1199 75.8056 36.2657 75.0361 37.8785 75.0361C38.4337 75.0361 39.0113 75.1497 39.3563 75.3257V74.456C39.3563 73.6768 39.0113 73.1821 38.113 73.1821C37.9278 73.1821 37.5218 73.2301 37.2011 73.3502C37.2381 73.4735 37.2634 73.6052 37.2634 73.7262C37.2634 74.2019 36.9554 74.5876 36.4383 74.5876C35.9821 74.5876 35.637 74.2255 35.637 73.7631C35.637 72.9137 36.7214 72.2952 38.2241 72.2952C39.4187 72.2952 40.1459 72.5742 40.5275 73.0588C40.8716 73.4851 40.8965 74.1405 40.8965 75.0865V77.5497V77.5497ZM70.0468 75.8416C70.0468 77.4181 69.3567 78.2749 68.3843 78.2749C67.5221 78.2749 66.6847 77.4185 66.6847 75.5488C66.6847 74.092 67.3003 73.1825 68.3102 73.1825C69.3074 73.182 70.0468 74.1904 70.0468 75.8416ZM45.7729 73.4486C45.81 73.8624 46.1672 74.1525 46.5854 74.1525C47.1152 74.1525 47.4354 73.6897 47.4354 73.2417C47.4354 72.6103 46.9183 72.2832 46.4007 72.2832C45.81 72.2832 45.1817 72.7207 44.8249 73.3747L44.8001 73.3867C44.6894 72.8056 44.4058 72.3673 43.8146 72.3673C43.6791 72.3673 43.5314 72.3922 43.3715 72.4403C42.8788 72.5858 42.1521 72.9608 42.4235 73.6278C43.1132 73.4971 43.3593 73.7257 43.3593 74.3183V77.14C43.3593 77.7003 43.2857 77.9349 43.0883 78.0994C42.9031 78.2388 42.7067 78.2966 42.5834 78.3206C42.3002 78.9284 42.8544 79.1178 44.2215 79.1178C45.5887 79.1178 46.0566 78.9289 45.7734 78.3206C45.6501 78.2961 45.3055 78.2384 45.1208 78.0994C44.9234 77.9349 44.8376 77.7003 44.8376 77.14V75.4379C44.8371 73.9206 45.4035 73.5216 45.7729 73.4486V73.4486ZM62.7193 72.4648H64.4802C64.6898 72.9613 64.4066 73.3618 64.0123 73.3987C63.889 73.4116 63.7535 73.4116 63.6307 73.4116C63.31 73.4116 62.9903 73.3867 62.7685 73.3867V77.1405C62.7685 77.7007 62.8669 77.9354 63.0639 78.0998C63.2491 78.2393 63.6804 78.297 63.8037 78.3211C64.0869 78.9289 63.4211 79.1183 62.0544 79.1183C60.6878 79.1183 60.1214 78.9294 60.4041 78.3211C60.527 78.2966 60.7248 78.2388 60.9091 78.0998C61.106 77.9354 61.1796 77.7007 61.1796 77.1405V73.3613L60.1453 73.3253C59.9357 72.8297 60.2189 72.4768 60.6376 72.4768H61.1557V71.9913C61.1557 71.0084 61.3399 70.462 61.5865 70.098C61.9677 69.5156 62.6208 69.1156 63.6424 69.1156C64.9359 69.1156 65.9824 69.7101 65.9824 70.6075C65.9824 70.996 65.7114 71.4689 65.1451 71.4689C64.7268 71.4689 64.3325 71.117 64.3325 70.6809C64.3325 70.498 64.4066 70.304 64.5046 70.1835C64.3574 70.0135 64.0494 69.9281 63.7535 69.9281C62.9035 69.9281 62.7193 70.547 62.7193 71.3234V72.4648V72.4648ZM51.3765 73.4486C51.4136 73.8624 51.7708 74.1525 52.1895 74.1525C52.7193 74.1525 53.0391 73.6897 53.0391 73.2417C53.0391 72.6103 52.5219 72.2832 52.0048 72.2832C51.4136 72.2832 50.7853 72.7207 50.429 73.3747L50.4037 73.3867C50.2935 72.8056 50.0099 72.3673 49.4186 72.3673C49.2836 72.3673 49.1355 72.3922 48.9756 72.4403C48.4824 72.5858 47.7557 72.9608 48.0271 73.6278C48.7168 73.4971 48.9625 73.7257 48.9625 74.3183V77.14C48.9625 77.7003 48.8893 77.9349 48.6919 78.0994C48.5072 78.2388 48.3108 78.2966 48.1879 78.3206C47.9043 78.9284 48.4589 79.1178 49.8251 79.1178C51.1918 79.1178 51.6607 78.9289 51.377 78.3206C51.2542 78.2961 50.9096 78.2384 50.7244 78.0994C50.5275 77.9349 50.4412 77.7003 50.4412 77.14V75.4379C50.4407 73.9206 51.0071 73.5216 51.3765 73.4486V73.4486ZM84.1543 73.4486C84.1956 73.8624 84.5556 74.1525 84.9762 74.1525C85.4985 74.1525 85.8187 73.6897 85.8187 73.2417C85.8187 72.6103 85.3091 72.2832 84.7844 72.2832C84.1956 72.2832 83.5743 72.7207 83.2185 73.3747L83.1824 73.3867C83.0746 72.8056 82.7886 72.3673 82.2081 72.3673C82.0637 72.3673 81.9235 72.3922 81.7548 72.4403C81.269 72.5858 80.5447 72.9608 80.8086 73.6278C81.5006 73.4971 81.743 73.7257 81.743 74.3183V77.14C81.743 77.7003 81.6722 77.9349 81.4688 78.0994C81.292 78.2388 81.089 78.2966 80.9713 78.3206C80.6853 78.9284 81.2447 79.1178 82.6109 79.1178C83.9775 79.1178 84.4398 78.9289 84.1538 78.3206C84.0366 78.2961 83.692 78.2384 83.5003 78.0994C83.3127 77.9349 83.2297 77.7003 83.2297 77.14V75.4379C83.2303 73.9206 83.7867 73.5216 84.1543 73.4486V73.4486Z" fill="#3D3D3D"/>
<path d="M26 74.4001C26 77.462 28.1421 79.2753 30.4699 79.2753C32.5638 79.2753 34.0289 77.825 34.0289 76.6176C34.0289 75.9747 33.6229 75.5072 33.0931 75.5072C32.5511 75.5072 32.0959 75.8694 32.0959 76.4915C32.0959 76.8888 32.3172 77.1109 32.4775 77.286C32.1939 77.8255 31.5905 78.2693 30.6542 78.2693C29.1028 78.2693 27.9823 76.6772 27.9823 74.3876C27.9823 72.0953 29.0531 70.4934 30.6054 70.4934C31.5417 70.4934 32.1447 70.9424 32.4283 71.4768C32.268 71.6583 32.0467 71.8768 32.0467 72.2772C32.0467 72.8962 32.5024 73.2597 33.0444 73.2597C33.5742 73.2597 33.9797 72.7881 33.9797 72.1438C33.9797 70.9419 32.5146 69.4865 30.4207 69.4865C28.0924 69.486 26 71.4763 26 74.4001" fill="#3D3D3D"/>
<path d="M26 74.4001C26 77.462 28.1421 79.2753 30.4699 79.2753C32.5638 79.2753 34.0289 77.825 34.0289 76.6176C34.0289 75.9747 33.6229 75.5072 33.0931 75.5072C32.5511 75.5072 32.0959 75.8694 32.0959 76.4915C32.0959 76.8888 32.3172 77.1109 32.4775 77.286C32.1939 77.8255 31.5905 78.2693 30.6542 78.2693C29.1028 78.2693 27.9823 76.6772 27.9823 74.3876C27.9823 72.0953 29.0531 70.4934 30.6054 70.4934C31.5417 70.4934 32.1447 70.9424 32.4283 71.4768C32.268 71.6583 32.0467 71.8768 32.0467 72.2772C32.0467 72.8962 32.5024 73.2597 33.0444 73.2597C33.5742 73.2597 33.9797 72.7881 33.9797 72.1438C33.9797 70.9419 32.5146 69.4865 30.4207 69.4865C28.0924 69.486 26 71.4763 26 74.4001V74.4001Z" fill="#3D3D3D"/>
<path d="M46.1715 33.0545L33.1043 45.5084C32.4517 46.0544 32.0349 46.6955 32.0349 47.6128C32.0349 48.526 32.4522 49.1694 33.1043 49.7195L46.1715 62.1693C46.2554 62.2538 46.3365 62.2875 46.4054 62.2875C46.5292 62.2875 46.6145 62.1766 46.6108 62.0464C46.607 61.9697 46.5733 61.8815 46.4959 61.8053C43.4287 58.051 41.197 53.7453 41.197 47.6581C41.197 41.5671 43.4287 37.1769 46.4959 33.4199C46.5733 33.3446 46.607 33.2577 46.6108 33.1792C46.615 33.0462 46.5292 32.9386 46.4054 32.9386C46.3365 32.9372 46.2554 32.9704 46.1715 33.0545" fill="#3D3D3D"/>
<path d="M56.2174 32C51.101 32 49.1018 39.1431 49.1018 47.6571C49.1018 56.1739 51.101 63.2219 56.2174 63.2219C59.2879 63.2219 61.905 61.4505 61.9134 59.9947C61.9148 59.676 61.7901 59.3707 61.5186 59.1041C60.0634 57.7189 59.4942 56.3347 59.49 55.113C59.4806 52.7809 61.5341 51.0437 63.4273 51.0437C66.0299 51.0437 67.5648 53.0589 67.5648 55.6686C67.5648 58.1416 66.4954 60.2011 65.3317 61.8505C65.2858 61.918 65.2652 61.9933 65.2652 62.0593C65.2661 62.1886 65.3435 62.2949 65.4593 62.2949C65.5296 62.2949 65.6121 62.2579 65.7021 62.1688L78.7725 49.719C79.4252 49.1694 79.842 48.5255 79.842 47.6123C79.842 46.6955 79.4247 46.0539 78.7725 45.508L65.7021 33.054C65.6126 32.9658 65.5301 32.9284 65.4593 32.9284C65.3425 32.9284 65.2661 33.0356 65.2652 33.1653C65.2652 33.2319 65.2858 33.3062 65.3317 33.3746C66.4949 35.0217 67.5648 37.0836 67.5648 39.5547C67.5648 42.1625 66.0299 44.1796 63.4273 44.1796C61.5341 44.1796 59.4806 42.4438 59.49 40.1112C59.4942 38.8895 60.0634 37.5039 61.5186 36.1201C61.7901 35.8522 61.9148 35.5496 61.9134 35.2305C61.905 33.7723 59.2879 32 56.2174 32Z" fill="#3D3D3D"/>
</svg>
