<svg width="112" height="112" viewBox="0 0 112 112" fill="none" xmlns="http://www.w3.org/2000/svg">
<rect width="112" height="112" rx="2" fill="#F1F3F5"/>
<path d="M37 37H74.955C74.9546 49.6516 74.9553 62.3031 74.9546 74.9547C62.3033 74.9555 49.6513 74.9547 37 74.9551V37ZM69.8623 64.4531C69.8607 64.5336 69.8603 64.6145 69.8619 64.6953C70.0432 64.6941 70.2253 64.6949 70.4067 64.6949C70.4078 65.1984 70.4067 65.702 70.4074 66.2059C70.5065 66.2051 70.6056 66.2051 70.7047 66.2055C70.7047 65.702 70.7043 65.1984 70.7051 64.6949C70.8868 64.6949 71.0693 64.6945 71.2511 64.6949C71.2507 64.6145 71.2507 64.5344 71.2511 64.4539C70.7881 64.4531 70.3252 64.4547 69.8623 64.4531ZM71.5973 64.4535C71.5961 65.0375 71.5961 65.6215 71.5973 66.2055C71.696 66.2055 71.7947 66.2055 71.8938 66.2055C71.8957 65.727 71.8906 65.2488 71.8969 64.7703C72.0955 65.2445 72.2749 65.7266 72.4644 66.2043C72.5279 66.2047 72.5917 66.2047 72.6563 66.2047C72.8475 65.725 73.0296 65.2418 73.2258 64.7645C73.2293 65.2445 73.2266 65.725 73.2278 66.2055C73.3261 66.2051 73.4248 66.2051 73.5235 66.2063C73.527 65.6223 73.5238 65.0383 73.525 64.4543C73.3746 64.4531 73.2242 64.4535 73.0742 64.4543C72.907 64.893 72.7362 65.3305 72.5666 65.7684C72.3959 65.3297 72.222 64.8922 72.0512 64.4535C71.8996 64.4539 71.7481 64.4535 71.5973 64.4535ZM41.5052 66.3211C40.7666 66.3508 40.0228 66.6848 39.583 67.2922C39.2046 67.8012 39.0535 68.448 39.0566 69.0742C39.0452 69.6637 39.1643 70.2707 39.48 70.7758C39.7357 71.1891 40.1274 71.5133 40.5778 71.6953C41.1206 71.9152 41.7292 71.9547 42.3011 71.8371C42.8314 71.7281 43.3335 71.4508 43.6789 71.0301C43.9907 70.6578 44.1712 70.1898 44.2448 69.7133C44.3244 69.1598 44.3032 68.5848 44.1395 68.048C43.986 67.5449 43.6746 67.0867 43.2418 66.784C42.7409 66.4293 42.1123 66.2887 41.5052 66.3211ZM46.5607 67.0684C46.5615 66.8637 46.5615 66.659 46.5607 66.4547C46.1185 66.4547 45.6763 66.4523 45.2342 66.4563C45.2365 68.2203 45.2346 69.9844 45.2353 71.7484C45.7092 71.7504 46.1831 71.7484 46.6571 71.7496C46.6594 70.5785 46.6543 69.407 46.6598 68.2363C46.7178 68.0641 46.876 67.9395 47.0338 67.8578C47.3961 67.6859 47.8066 67.6711 48.2002 67.6676C48.2002 67.2301 48.1998 66.7926 48.2006 66.3555C47.5802 66.2977 46.9602 66.6039 46.5607 67.0684ZM50.0402 66.4988C49.5577 66.6527 49.1272 66.9652 48.8366 67.3809C49.1503 67.5641 49.4672 67.7422 49.7832 67.9211C50.0527 67.5875 50.451 67.3574 50.8818 67.3234C51.1901 67.2969 51.5594 67.3125 51.7795 67.5621C51.9354 67.7406 51.89 67.9902 51.8958 68.207C51.1721 68.2922 50.4416 68.4109 49.7672 68.6973C49.3865 68.8621 49.0152 69.0984 48.7904 69.457C48.5393 69.8594 48.5139 70.3738 48.6537 70.8195C48.7673 71.1871 49.0407 71.5012 49.3924 71.6586C49.7954 71.8457 50.2564 71.8356 50.686 71.7672C51.1145 71.6957 51.5249 71.5289 51.888 71.291C51.9283 71.4438 51.9687 71.5961 52.0094 71.7492C52.4242 71.7488 52.8389 71.7492 53.2537 71.7492C53.2384 70.5258 53.2482 69.3016 53.2467 68.0781C53.2713 67.7176 53.2032 67.3359 52.9764 67.0457C52.6815 66.6531 52.1931 66.4672 51.7227 66.3922C51.1634 66.3121 50.5814 66.3262 50.0402 66.4988ZM56.9635 66.3852C56.4665 66.4875 56.0313 66.7664 55.6256 67.0586C55.5848 66.8516 55.5378 66.6453 55.501 66.4379C55.1137 66.4906 54.7259 66.5441 54.3386 66.5984C54.3378 68.3129 54.3386 70.027 54.3386 71.741C54.8019 71.7414 55.2649 71.741 55.7286 71.741C55.7286 70.4773 55.7286 69.2141 55.7286 67.9508C56.0568 67.6781 56.4324 67.4297 56.8656 67.3758C57.0837 67.3516 57.3399 67.3645 57.4989 67.5367C57.6559 67.7199 57.681 67.9742 57.6884 68.2059C57.6892 69.3844 57.6888 70.5625 57.6888 71.741C58.1549 71.7418 58.621 71.741 59.087 71.741C59.087 70.4875 59.087 69.234 59.087 67.9805C59.0815 67.7289 59.0471 67.4754 58.9601 67.2387C58.8469 66.9203 58.6123 66.6449 58.3025 66.5051C57.8862 66.3164 57.4068 66.3012 56.9635 66.3852ZM60.5961 67.1555C60.17 67.7309 60.0207 68.4664 60.0344 69.1711C60.0403 69.8141 60.1833 70.4871 60.5918 70.9996C60.9157 71.4164 61.4205 71.6734 61.9422 71.7281C62.3229 71.7645 62.7298 71.7484 63.0702 71.5551C63.3067 71.4234 63.4732 71.2023 63.613 70.9762C63.624 71.1988 63.6161 71.4219 63.6185 71.6445C63.6095 71.9395 63.5664 72.2606 63.3619 72.4895C63.1755 72.6961 62.8849 72.7691 62.6155 72.7699C62.3323 72.7738 62.0264 72.7641 61.7812 72.6051C61.659 72.5266 61.5964 72.3891 61.5603 72.2539C61.1005 72.3277 60.6411 72.402 60.1813 72.4758C60.2647 72.9039 60.564 73.2672 60.9427 73.4727C61.5341 73.8008 62.2371 73.8371 62.8967 73.7738C63.4685 73.7168 64.0724 73.5543 64.4801 73.125C64.8455 72.7398 64.9599 72.1914 64.9681 71.6766C64.9681 69.9305 64.9681 68.1848 64.9681 66.4387C64.5737 66.441 64.1793 66.4328 63.7853 66.443C63.7548 66.6379 63.7164 66.832 63.6823 67.027C63.5601 66.7742 63.322 66.5988 63.0666 66.4957C62.731 66.3586 62.3609 66.3262 62.0009 66.3469C61.4417 66.3891 60.9231 66.7051 60.5961 67.1555ZM66.4106 67.1156C66.0268 67.5715 65.8556 68.1688 65.8129 68.7543C65.7718 69.3934 65.8317 70.0598 66.1243 70.6391C66.3511 71.0906 66.7404 71.4606 67.2115 71.6473C67.8166 71.8906 68.4958 71.8883 69.1263 71.7551C69.7436 71.6203 70.3244 71.2504 70.6385 70.6926C70.2958 70.5047 69.9535 70.3148 69.6124 70.1242C69.4592 70.3434 69.2728 70.5484 69.0312 70.6699C68.759 70.8082 68.4413 70.8258 68.1441 70.7828C67.8562 70.741 67.584 70.5828 67.4269 70.3355C67.2331 70.0316 67.1798 69.6605 67.1775 69.3063C68.3477 69.307 69.5184 69.3063 70.6894 69.3066C70.729 68.8406 70.6843 68.3656 70.55 67.9176C70.4024 67.4316 70.1023 66.9816 69.6692 66.707C69.1381 66.3641 68.4746 66.2898 67.8582 66.3621C67.3063 66.4285 66.7674 66.6824 66.4106 67.1156Z" fill="#3D3D3D"/>
<path d="M67.502 67.5977C67.6712 67.4066 67.9234 67.3039 68.1753 67.2887C68.4964 67.2648 68.847 67.3547 69.0663 67.6035C69.2602 67.8188 69.3248 68.1164 69.3322 68.3988C68.621 68.3984 67.9097 68.3996 67.1985 68.3981C67.2216 68.1113 67.3054 67.8156 67.502 67.5977Z" fill="#3D3D3D"/>
<path d="M62.3005 67.3488C62.628 67.2887 62.9844 67.3938 63.2162 67.6355C63.4888 67.9137 63.5997 68.3094 63.6232 68.6895C63.6341 68.968 63.6224 69.2484 63.5781 69.5238C63.5284 69.8141 63.4305 70.1109 63.2205 70.3254C63.0294 70.5195 62.7513 70.6082 62.483 70.6016C62.2332 70.6094 61.97 70.5301 61.7969 70.3422C61.5642 70.1027 61.4871 69.7613 61.4495 69.4402C61.4189 69.1133 61.4099 68.7824 61.453 68.4563C61.4937 68.1695 61.5826 67.8781 61.7745 67.6547C61.9081 67.4965 62.0965 67.3859 62.3005 67.3488Z" fill="#3D3D3D"/>
<path d="M41.4481 67.5168C41.7873 67.4664 42.1668 67.5223 42.4323 67.7547C42.6818 67.9691 42.8032 68.293 42.8577 68.6094C42.9152 68.9652 42.9129 69.3316 42.8436 69.6852C42.7801 69.9957 42.6415 70.309 42.383 70.5047C42.0947 70.7187 41.7082 70.757 41.3643 70.6863C41.0835 70.6293 40.834 70.4469 40.6906 70.1992C40.4838 69.8406 40.4384 69.4148 40.447 69.0078C40.4603 68.6422 40.525 68.2617 40.7337 67.9531C40.8955 67.7133 41.1618 67.5543 41.4481 67.5168Z" fill="#3D3D3D"/>
<path d="M50.608 69.3449C51.0044 69.1812 51.4317 69.1086 51.855 69.0551C51.8566 69.4676 51.8543 69.8805 51.8562 70.2934C51.5022 70.6105 51.0506 70.8598 50.5638 70.8508C50.4004 70.8551 50.2387 70.7856 50.1274 70.6672C49.9156 70.4293 49.885 70.0527 50.0491 69.7809C50.1713 69.5703 50.3903 69.4394 50.608 69.3449Z" fill="#3D3D3D"/>
<path d="M74.955 37H74.9871V74.9871H37V74.9551C49.6513 74.9547 62.3033 74.9555 74.9546 74.9547C74.9554 62.3031 74.9546 49.6516 74.955 37Z" fill="#FED9BF"/>
<path d="M69.8622 64.4531C70.3252 64.4547 70.7881 64.4531 71.251 64.4539C71.2506 64.5344 71.2506 64.6145 71.251 64.6949C71.0693 64.6945 70.8868 64.6949 70.7051 64.6949C70.7043 65.1984 70.7047 65.702 70.7047 66.2055C70.6056 66.2051 70.5065 66.2051 70.4074 66.2059C70.4066 65.702 70.4078 65.1984 70.4066 64.6949C70.2253 64.6949 70.0432 64.6941 69.8618 64.6953C69.8603 64.6145 69.8607 64.5336 69.8622 64.4531Z" fill="white"/>
<path d="M71.5973 64.4535C71.7481 64.4535 71.8997 64.4539 72.0512 64.4535C72.222 64.8922 72.3959 65.3297 72.5667 65.7684C72.7363 65.3305 72.907 64.893 73.0743 64.4543C73.2243 64.4535 73.3747 64.4531 73.525 64.4543C73.5239 65.0383 73.527 65.6223 73.5235 66.2063C73.4248 66.2051 73.3261 66.2051 73.2278 66.2055C73.2266 65.725 73.2293 65.2445 73.2258 64.7645C73.0296 65.2418 72.8475 65.725 72.6564 66.2047C72.5917 66.2047 72.5279 66.2047 72.4644 66.2043C72.2749 65.7266 72.0955 65.2445 71.8969 64.7703C71.8907 65.2488 71.8958 65.727 71.8938 66.2055C71.7947 66.2055 71.696 66.2055 71.5973 66.2055C71.5961 65.6215 71.5961 65.0375 71.5973 64.4535Z" fill="white"/>
<path d="M41.5053 66.3211C42.1123 66.2887 42.741 66.4293 43.2419 66.784C43.6747 67.0867 43.986 67.5449 44.1396 68.0481C44.3033 68.5848 44.3244 69.1598 44.2449 69.7133C44.1713 70.1898 43.9907 70.6578 43.679 71.0301C43.3335 71.4508 42.8314 71.7281 42.3011 71.8371C41.7293 71.9547 41.1207 71.9152 40.5778 71.6953C40.1274 71.5133 39.7358 71.1891 39.48 70.7758C39.1644 70.2707 39.0453 69.6637 39.0566 69.0742C39.0535 68.4481 39.2047 67.8012 39.583 67.2922C40.0229 66.6848 40.7666 66.3508 41.5053 66.3211ZM41.4481 67.5168C41.1618 67.5543 40.8955 67.7133 40.7337 67.9531C40.525 68.2617 40.4603 68.6422 40.447 69.0078C40.4384 69.4148 40.4838 69.8406 40.6906 70.1992C40.834 70.4469 41.0835 70.6293 41.3643 70.6863C41.7082 70.757 42.0947 70.7188 42.383 70.5047C42.6415 70.309 42.7801 69.9957 42.8436 69.6852C42.9129 69.3316 42.9152 68.9652 42.8577 68.6094C42.8032 68.293 42.6818 67.9691 42.4323 67.7547C42.1668 67.5223 41.7873 67.4664 41.4481 67.5168Z" fill="white"/>
<path d="M46.5607 67.0684C46.9602 66.6039 47.5801 66.2977 48.2005 66.3555C48.1997 66.7926 48.2001 67.2301 48.2001 67.6676C47.8065 67.6711 47.3961 67.6859 47.0338 67.8578C46.876 67.9395 46.7177 68.0641 46.6598 68.2363C46.6543 69.407 46.6594 70.5785 46.657 71.7496C46.1831 71.7484 45.7092 71.7504 45.2353 71.7484C45.2345 69.9844 45.2365 68.2203 45.2341 66.4563C45.6763 66.4523 46.1185 66.4547 46.5607 66.4547C46.5615 66.659 46.5615 66.8637 46.5607 67.0684Z" fill="white"/>
<path d="M50.0402 66.4988C50.5814 66.3262 51.1634 66.3121 51.7227 66.3922C52.1931 66.4672 52.6815 66.6531 52.9764 67.0457C53.2032 67.3359 53.2713 67.7176 53.2466 68.0781C53.2482 69.3016 53.2384 70.5258 53.2537 71.7492C52.8389 71.7492 52.4242 71.7488 52.0094 71.7492C51.9687 71.5961 51.9283 71.4437 51.888 71.291C51.5249 71.5289 51.1145 71.6957 50.686 71.7672C50.2564 71.8355 49.7954 71.8457 49.3924 71.6586C49.0407 71.5012 48.7673 71.1871 48.6537 70.8195C48.5139 70.3738 48.5393 69.8594 48.7904 69.457C49.0152 69.0984 49.3865 68.8621 49.7672 68.6973C50.4416 68.4109 51.172 68.2922 51.8958 68.207C51.8899 67.9902 51.9354 67.7406 51.7795 67.5621C51.5594 67.3125 51.1901 67.2969 50.8818 67.3234C50.451 67.3574 50.0527 67.5875 49.7832 67.9211C49.4672 67.7422 49.1503 67.5641 48.8366 67.3809C49.1272 66.9652 49.5576 66.6527 50.0402 66.4988ZM50.6081 69.3449C50.3903 69.4395 50.1714 69.5703 50.0492 69.7809C49.8851 70.0527 49.9156 70.4293 50.1275 70.6672C50.2387 70.7855 50.4005 70.8551 50.5638 70.8508C51.0506 70.8598 51.5022 70.6105 51.8563 70.2934C51.8543 69.8805 51.8567 69.4676 51.8551 69.0551C51.4317 69.1086 51.0044 69.1813 50.6081 69.3449Z" fill="white"/>
<path d="M56.9636 66.3852C57.407 66.3012 57.8863 66.3164 58.3027 66.5051C58.6125 66.6449 58.8471 66.9203 58.9603 67.2387C59.0472 67.4754 59.0817 67.7289 59.0872 67.9805C59.0872 69.234 59.0872 70.4875 59.0872 71.741C58.6211 71.741 58.155 71.7418 57.6889 71.741C57.6889 70.5625 57.6893 69.3844 57.6886 68.2059C57.6811 67.9742 57.656 67.7199 57.499 67.5367C57.34 67.3645 57.0838 67.3516 56.8657 67.3758C56.4325 67.4297 56.0569 67.6781 55.7287 67.9508C55.7287 69.2141 55.7287 70.4773 55.7287 71.741C55.265 71.741 54.8021 71.7414 54.3387 71.741C54.3387 70.027 54.3379 68.3129 54.3387 66.5984C54.7261 66.5441 55.1138 66.4906 55.5012 66.4379C55.538 66.6453 55.585 66.8516 55.6257 67.0586C56.0315 66.7664 56.4666 66.4875 56.9636 66.3852Z" fill="white"/>
<path d="M60.5962 67.1555C60.9232 66.7051 61.4418 66.3891 62.0011 66.3469C62.361 66.3262 62.7311 66.3586 63.0667 66.4957C63.3221 66.5988 63.5602 66.7742 63.6824 67.0269C63.7165 66.832 63.7549 66.6379 63.7854 66.443C64.1794 66.4328 64.5738 66.441 64.9682 66.4387C64.9682 68.1848 64.9682 69.9305 64.9682 71.6766C64.96 72.1914 64.8457 72.7398 64.4802 73.125C64.0725 73.5543 63.4686 73.7168 62.8968 73.7738C62.2372 73.8371 61.5342 73.8008 60.9428 73.4727C60.5641 73.2672 60.2648 72.9039 60.1814 72.4758C60.6412 72.402 61.1006 72.3277 61.5604 72.2539C61.5965 72.3891 61.6591 72.5266 61.7813 72.6051C62.0265 72.7641 62.3324 72.7738 62.6156 72.7699C62.885 72.7691 63.1756 72.6961 63.3621 72.4895C63.5665 72.2605 63.6096 71.9395 63.6186 71.6445C63.6162 71.4219 63.6241 71.1988 63.6131 70.9762C63.4733 71.2023 63.3068 71.4234 63.0703 71.5551C62.7299 71.7484 62.323 71.7645 61.9423 71.7281C61.4206 71.6734 60.9158 71.4164 60.5919 70.9996C60.1834 70.4871 60.0404 69.8141 60.0345 69.1711C60.0208 68.4664 60.1701 67.7309 60.5962 67.1555ZM62.3007 67.3488C62.0966 67.3859 61.9082 67.4965 61.7747 67.6547C61.5828 67.8781 61.4939 68.1695 61.4531 68.4562C61.41 68.7824 61.4191 69.1133 61.4496 69.4402C61.4872 69.7613 61.5644 70.1027 61.797 70.3422C61.9701 70.5301 62.2333 70.6094 62.4832 70.6016C62.7515 70.6082 63.0295 70.5195 63.2207 70.3254C63.4306 70.1109 63.5285 69.8141 63.5783 69.5238C63.6225 69.2484 63.6343 68.968 63.6233 68.6895C63.5998 68.3094 63.489 67.9137 63.2164 67.6355C62.9845 67.3937 62.6281 67.2887 62.3007 67.3488Z" fill="white"/>
<path d="M66.4106 67.1156C66.7674 66.6824 67.3063 66.4285 67.8581 66.3621C68.4746 66.2898 69.138 66.3641 69.6691 66.707C70.1023 66.9816 70.4023 67.4316 70.55 67.9176C70.6843 68.3656 70.7289 68.8406 70.6894 69.3067C69.5183 69.3063 68.3477 69.307 67.1774 69.3063C67.1798 69.6606 67.233 70.0317 67.4269 70.3356C67.584 70.5828 67.8562 70.741 68.144 70.7828C68.4413 70.8258 68.7589 70.8082 69.0311 70.6699C69.2728 70.5484 69.4592 70.3434 69.6123 70.1242C69.9535 70.3149 70.2958 70.5047 70.6385 70.6926C70.3244 71.2504 69.7435 71.6203 69.1263 71.7551C68.4957 71.8883 67.8166 71.8906 67.2115 71.6473C66.7403 71.4606 66.351 71.0906 66.1243 70.6391C65.8317 70.0598 65.7718 69.3934 65.8129 68.7543C65.8556 68.1688 66.0267 67.5715 66.4106 67.1156ZM67.5021 67.5977C67.3055 67.8156 67.2217 68.1113 67.1986 68.3981C67.9098 68.3996 68.6211 68.3984 69.3323 68.3988C69.3249 68.1164 69.2602 67.8188 69.0664 67.6035C68.847 67.3547 68.4965 67.2649 68.1754 67.2887C67.9235 67.3039 67.6713 67.4066 67.5021 67.5977Z" fill="white"/>
</svg>
